<?xml version="1.0" standalone="no"?>
<!DOCTYPE svg PUBLIC "-//W3C//DTD SVG 20010904//EN"
 "http://www.w3.org/TR/2001/REC-SVG-20010904/DTD/svg10.dtd">
<svg version="1.0" xmlns="http://www.w3.org/2000/svg"
 width="852.000000pt" height="432.000000pt" viewBox="0 0 852.000000 432.000000"
 preserveAspectRatio="xMidYMid meet">

<g transform="translate(0.000000,432.000000) scale(0.100000,-0.100000)"
fill="#000000" stroke="none">
<path d="M3347 3180 c-181 -31 -295 -118 -344 -263 -16 -47 -18 -115 -21 -672
-2 -341 0 -639 3 -662 3 -24 12 -43 18 -43 9 0 11 144 9 612 -4 743 0 773 94
878 81 89 195 124 409 124 109 0 167 -4 212 -17 165 -44 254 -133 283 -282 8
-43 10 -244 8 -698 -2 -473 0 -637 8 -637 7 0 16 8 20 18 13 26 17 1183 5
1273 -15 112 -44 181 -102 240 -59 61 -147 104 -253 124 -82 16 -268 18 -349
5z"/>
<path d="M725 3156 c-84 -27 -136 -67 -169 -133 -30 -59 -38 -182 -34 -495 3
-282 5 -306 24 -348 12 -25 34 -57 50 -72 56 -52 100 -61 324 -66 167 -3 208
-7 223 -19 15 -14 17 -39 17 -225 0 -263 10 -248 -160 -248 l-120 0 0 99 c0
54 -3 113 -6 130 l-6 31 -164 0 -164 0 0 -273 c0 -253 1 -275 18 -290 17 -15
56 -17 349 -17 317 0 331 1 348 20 18 20 17 20 -328 20 l-347 0 0 250 0 250
130 0 129 0 3 -127 3 -128 100 -3 c138 -4 182 4 217 38 l28 28 0 221 c0 218 0
220 -24 248 l-24 28 -224 5 c-214 5 -225 6 -266 30 -24 13 -53 40 -65 60 -21
34 -22 44 -25 395 -3 308 -1 366 13 408 23 70 51 104 115 135 l55 27 363 3
362 3 0 -255 0 -256 -130 0 -130 0 0 130 0 130 -149 0 c-211 0 -196 21 -196
-264 0 -297 -28 -269 278 -276 252 -6 272 -10 316 -66 39 -50 42 -84 39 -466
-3 -335 -2 -365 13 -357 9 4 19 23 23 40 11 54 7 654 -5 708 -14 67 -45 111
-99 141 -43 24 -53 25 -272 30 -201 4 -229 7 -245 23 -16 16 -18 39 -18 222 0
154 3 207 13 217 9 9 49 13 140 13 l127 0 3 -132 3 -133 159 0 160 0 0 284 c0
250 -2 285 -16 290 -9 3 -174 6 -367 5 -255 0 -363 -4 -392 -13z"/>
<path d="M7020 3152 c-41 -12 -68 -29 -106 -66 -77 -78 -79 -88 -79 -511 0
-391 1 -395 58 -457 57 -62 135 -78 373 -78 167 0 173 -1 188 -22 13 -19 16
-57 16 -219 0 -259 7 -249 -166 -249 l-124 0 0 130 0 130 -165 0 -165 0 0
-174 c0 -144 3 -175 15 -180 12 -4 15 19 17 157 l3 162 133 3 132 3 0 -131 0
-130 144 0 c139 0 146 1 173 24 l28 24 3 214 c2 132 -1 224 -7 241 -19 49 -58
57 -269 57 -246 0 -286 13 -335 105 -21 38 -22 56 -25 347 -5 406 9 490 90
551 69 52 112 57 485 57 l343 0 0 -255 0 -255 -130 0 -130 0 0 130 0 130 -150
0 c-212 0 -200 16 -200 -260 0 -132 4 -219 11 -232 22 -40 66 -48 276 -48 253
-1 292 -13 334 -105 17 -36 19 -72 19 -401 0 -399 -4 -434 -61 -499 -18 -20
-53 -43 -87 -56 -53 -20 -75 -22 -304 -23 -137 -1 -248 -3 -248 -6 1 -30 20
-32 266 -28 286 5 319 12 390 84 73 72 77 98 82 485 2 216 0 357 -7 394 -14
72 -48 124 -104 156 -40 23 -52 24 -269 29 -201 4 -229 7 -245 23 -16 15 -18
41 -21 205 -2 113 1 198 7 215 l11 27 128 0 129 0 7 -77 c3 -42 6 -100 6 -130
l0 -53 160 0 160 0 0 284 c0 250 -2 285 -16 290 -9 3 -174 6 -367 5 -293 0
-361 -3 -407 -17z"/>
<path d="M1640 3010 l0 -150 55 0 55 0 0 -660 0 -660 -55 0 c-44 0 -55 -3 -55
-16 0 -12 6 -15 23 -10 12 4 43 9 70 13 l47 6 0 683 0 684 -55 0 -55 0 0 115
0 115 423 0 c346 0 434 -3 482 -15 85 -22 134 -59 170 -130 l30 -59 0 -395 c0
-364 -2 -400 -19 -445 -25 -66 -75 -119 -139 -147 -49 -22 -65 -24 -289 -27
l-238 -4 0 -199 0 -199 75 0 75 0 0 -43 c0 -40 13 -67 32 -67 4 0 8 32 8 70
l0 70 -75 0 -75 0 0 170 0 169 203 -2 c166 -1 212 1 258 15 68 21 130 65 164
117 52 78 55 103 55 516 0 331 -2 390 -17 435 -22 68 -87 140 -155 171 l-53
24 -472 3 -473 3 0 -151z"/>
<path d="M4180 3010 l0 -150 55 0 55 0 0 -659 0 -660 -32 -4 c-25 -3 -22 -4
15 -5 l47 -2 0 679 0 680 -52 3 -53 3 -3 118 -3 118 458 -3 458 -3 57 -27 c68
-32 112 -86 127 -159 14 -65 14 -698 0 -759 -13 -59 -51 -115 -91 -137 -18 -9
-63 -24 -99 -32 l-66 -16 102 -230 c97 -218 104 -230 131 -233 19 -2 24 0 16
6 -7 4 -54 102 -105 217 l-94 210 62 20 c82 28 116 54 148 113 41 76 49 169
45 519 -5 333 -7 353 -63 434 -19 27 -48 49 -94 72 l-66 32 -477 3 -478 3 0
-151z"/>
<path d="M5520 2880 l0 -280 140 0 140 0 0 125 0 125 60 0 60 0 0 -655 0 -655
-55 0 -55 0 0 -79 c0 -58 4 -82 15 -91 13 -11 15 -3 15 64 l0 76 55 0 55 0 0
690 0 690 -90 0 -90 0 0 -130 0 -130 -110 0 -110 0 0 250 0 250 560 0 560 0 0
-250 0 -250 -110 0 -109 0 -3 128 -3 127 -90 0 -90 0 -3 -689 -2 -689 67 6
c87 8 108 27 30 27 l-57 0 0 655 0 656 58 -3 57 -3 3 -122 3 -123 139 0 140 0
0 280 0 280 -590 0 -590 0 0 -280z"/>
<path d="M3427 2916 c-21 -8 -48 -22 -59 -33 -48 -42 -48 -45 -48 -677 0 -397
4 -604 11 -623 27 -72 86 -105 185 -105 88 0 147 27 176 82 17 33 18 66 16
658 l-3 624 -37 33 c-58 53 -158 70 -241 41z m190 -41 c65 -27 63 -11 63 -672
0 -642 1 -627 -53 -667 -39 -29 -150 -35 -201 -11 -68 33 -66 7 -66 684 l0
609 25 31 c42 49 147 61 232 26z"/>
<path d="M2090 2520 l0 -360 150 0 c168 0 204 10 217 58 5 15 8 157 8 315 l0
289 -33 29 -32 29 -155 0 -155 0 0 -360z m297 319 c15 -5 31 -16 35 -22 4 -7
8 -143 8 -304 0 -354 16 -323 -172 -323 l-128 0 0 330 0 330 114 0 c63 0 127
-5 143 -11z"/>
<path d="M4640 2534 l0 -345 160 3 c136 3 162 6 177 21 23 23 31 118 32 380 1
292 5 287 -224 287 l-145 0 0 -346z m308 300 c22 -15 22 -17 22 -298 0 -206
-3 -285 -12 -294 -8 -8 -56 -12 -150 -12 l-138 0 0 310 0 310 128 0 c99 0 132
-3 150 -16z"/>
<path d="M4640 1730 l0 -220 55 0 55 0 0 -119 c0 -89 3 -121 14 -130 21 -18
26 7 26 127 0 151 -1 152 -66 152 l-54 0 0 191 0 190 38 -3 37 -3 101 -245
c65 -158 106 -245 115 -245 8 0 13 7 11 15 -2 8 -49 126 -105 263 l-101 247
-63 0 -63 0 0 -220z"/>
<path d="M5408 1533 c6 -2 18 -2 25 0 6 3 1 5 -13 5 -14 0 -19 -2 -12 -5z"/>
<path d="M1748 1420 c-168 -29 -318 -121 -414 -255 -58 -82 -89 -155 -110
-256 -28 -140 -8 -272 63 -414 45 -89 171 -217 260 -263 179 -94 407 -96 590
-6 71 36 174 119 213 174 19 26 20 32 7 56 l-14 27 -16 -24 c-84 -120 -247
-220 -395 -241 -274 -40 -538 122 -633 388 -30 83 -37 237 -14 323 29 112 73
189 155 271 126 126 256 176 440 168 120 -5 203 -33 301 -99 57 -39 149 -132
149 -153 1 -18 30 26 30 45 0 9 -24 41 -53 70 -149 152 -359 222 -559 189z"/>
<path d="M2913 1420 c-177 -32 -345 -146 -436 -297 -60 -99 -90 -202 -90 -318
-1 -121 13 -184 65 -295 32 -67 57 -101 117 -161 130 -129 272 -189 451 -189
176 0 320 59 449 186 62 61 72 75 66 95 -13 43 -21 41 -61 -11 -108 -143 -303
-229 -489 -216 -148 10 -267 65 -375 175 -87 88 -123 149 -150 257 -52 202 3
408 148 553 115 114 252 171 412 171 170 0 292 -51 416 -176 81 -81 82 -82 93
-57 10 21 7 30 -24 68 -40 48 -115 108 -185 148 -103 58 -286 88 -407 67z"/>
<path d="M4105 1424 c-259 -40 -472 -236 -535 -489 -16 -69 -14 -227 5 -300
57 -222 245 -408 465 -459 144 -34 324 -12 453 56 66 35 217 173 217 199 0 8
-6 23 -12 32 -12 15 -18 10 -58 -40 -58 -73 -178 -155 -267 -183 -214 -66
-431 -13 -589 144 -231 230 -231 590 0 820 108 108 251 166 408 166 168 0 290
-52 415 -176 80 -80 81 -81 92 -56 10 21 7 30 -25 69 -39 48 -134 122 -194
153 -94 48 -276 79 -375 64z"/>
<path d="M5275 1424 c-252 -39 -468 -234 -530 -479 -19 -76 -19 -222 0 -304
54 -227 243 -413 473 -467 91 -21 253 -15 342 14 92 30 182 87 256 161 66 65
72 78 54 112 -10 18 -14 16 -51 -31 -50 -63 -122 -121 -202 -160 -221 -108
-487 -63 -662 114 -210 212 -232 525 -52 761 111 146 274 225 463 225 169 0
287 -51 411 -175 80 -81 81 -82 92 -58 14 30 -5 59 -80 127 -65 59 -154 108
-243 135 -68 21 -211 34 -271 25z"/>
<path d="M6405 1414 c-236 -49 -435 -243 -491 -479 -21 -92 -14 -255 15 -338
36 -103 84 -180 157 -254 57 -57 90 -80 165 -116 117 -57 189 -71 322 -65 162
8 295 67 411 183 249 248 247 645 -4 896 -153 153 -364 216 -575 173z m319
-72 c409 -149 525 -654 221 -957 -230 -231 -591 -231 -820 -1 -183 185 -223
434 -106 671 72 145 206 253 371 301 71 21 261 13 334 -14z"/>
<path d="M6446 1163 c-91 -33 -91 -32 -94 -356 -2 -269 -1 -284 18 -315 33
-53 95 -75 195 -70 96 5 141 26 168 78 16 31 17 63 15 307 -3 258 -4 273 -24
300 -34 45 -76 64 -156 69 -54 3 -86 0 -122 -13z m156 -100 c16 -15 18 -37 18
-264 0 -245 0 -248 -22 -263 -29 -20 -67 -20 -96 0 -22 15 -22 18 -22 264 0
278 1 280 67 280 20 0 45 -7 55 -17z"/>
<path d="M5935 1260 c3 -5 8 -10 11 -10 2 0 4 5 4 10 0 6 -5 10 -11 10 -5 0
-7 -4 -4 -10z"/>
<path d="M2951 1171 c-44 -12 -82 -41 -101 -77 -24 -46 -28 -521 -5 -580 23
-61 67 -86 161 -92 136 -9 215 36 229 131 4 23 5 148 3 277 -3 267 -9 288 -82
324 -43 21 -152 30 -205 17z m139 -111 c20 -20 21 -30 18 -266 -3 -230 -4
-247 -22 -260 -25 -18 -77 -18 -102 0 -18 13 -19 30 -22 260 -3 236 -2 246 18
266 12 12 33 20 55 20 22 0 43 -8 55 -20z"/>
<path d="M1660 1120 c0 -43 3 -50 20 -50 20 0 20 -7 20 -270 l0 -270 -25 0
c-23 0 -25 -3 -25 -50 l0 -50 215 0 215 0 0 105 0 105 -55 0 -55 0 0 -50 0
-50 -70 0 -70 0 0 265 c0 258 1 265 20 265 17 0 20 7 20 50 l0 50 -105 0 -105
0 0 -50z"/>
<path d="M3980 1065 l0 -105 50 0 50 0 0 50 c0 49 1 50 30 50 l30 0 0 -265 c0
-258 -1 -265 -20 -265 -17 0 -20 -7 -20 -50 l0 -50 110 0 110 0 0 49 c0 44 -3
50 -22 53 l-23 3 0 265 0 265 30 0 c29 0 30 -2 33 -52 3 -51 4 -53 32 -53 58
0 60 4 60 111 l0 99 -225 0 -225 0 0 -105z"/>
<path d="M5152 1068 l3 -103 48 -3 47 -3 0 50 c0 50 1 51 30 51 l30 0 0 -265
c0 -258 -1 -265 -20 -265 -17 0 -20 -7 -20 -50 l0 -50 110 0 110 0 0 49 c0 44
-3 50 -22 53 l-23 3 0 265 0 265 30 0 c29 0 30 -2 33 -52 3 -51 4 -53 32 -53
58 0 60 4 60 111 l0 99 -225 0 -226 0 3 -102z"/>
</g>
</svg>
