<?xml version="1.0" standalone="yes"?>
<svg width="568" height="288">
<path style="fill:#000000; stroke:none;" d="M0 0L0 288L568 288L568 0L0 0z"/>
<path style="fill:#7b7b7b; stroke:none;" d="M207 20L207 21L223 21L207 20z"/>
<path style="fill:#919191; stroke:none;" d="M230 20L230 21L239 22L230 20z"/>
<path style="fill:#858585; stroke:none;" d="M260 20L260 21L268 21L260 20z"/>
<path style="fill:#4d4d4d; stroke:none;" d="M271 20L271 21L279 21L271 20z"/>
<path style="fill:#8d8d8d; stroke:none;" d="M285 20L285 21L294 22L285 20z"/>
<path style="fill:#9d9d9d; stroke:none;" d="M297 20L297 21L307 21L297 20z"/>
<path style="fill:#939393; stroke:none;" d="M314 20L314 21L323 22L314 20z"/>
<path style="fill:#828282; stroke:none;" d="M328 20L328 21L339 21L328 20z"/>
<path style="fill:#989898; stroke:none;" d="M343 20L343 21L352 22L343 20z"/>
<path style="fill:#7d7d7d; stroke:none;" d="M357 20L357 21L377 21L357 20z"/>
<path style="fill:#ffffff; stroke:none;" d="M193 49C200.732 48.9726 199.789 45.5843 205.39 42.0278C208.235 40.2214 211.876 41.6311 214.895 40.3966C220.569 38.0766 224.627 26.6181 225 21C220.004 21 211.963 19.4524 207.39 21.6034C201.551 24.3502 194.102 42.8927 193 49M217 48C225.697 48 235.94 50.4702 241 42L228 42L238 21C226.527 21.0406 219.987 37.8451 217 48M240 48L254 45L254 48L262 48L268 21C255.106 21.01 245.408 37.1403 240 48z"/>
<path style="fill:#999999; stroke:none;" d="M268 21L269 22L268 21z"/>
<path style="fill:#ffffff; stroke:none;" d="M271 21L265 48C275.808 47.9618 288.571 30.51 293 21C284.34 21.0306 280.755 25.4511 277 33L276 33L279 21L271 21M275 60L337 60C344.444 60 355.002 62.5323 358 54L288 54L307 21L296.634 22.0278L289.579 33L275 60M298 48C310.827 47.9901 318.602 32.5504 322 21C309.166 21.0099 302.094 36.8189 298 48M313 48C322.759 47.9925 325.769 42.8783 329 34L330 34L328 48C340 47.9576 347.866 31.6547 351 21C342.411 21.0304 339.862 25.2408 337 33L336 33L339 21C324.415 21 317.758 35.0043 313 48M342 48C348.089 48 360.323 50.6598 363 44L353 44L365 33L359 33L377 21C371.573 21 363.238 19.4203 358.213 21.6034C351.421 24.554 344.767 41.3886 342 48z"/>
<path style="fill:#a5a5a5; stroke:none;" d="M225.333 22.6667L225.667 23.3333L225.333 22.6667z"/>
<path style="fill:#919191; stroke:none;" d="M258 22L259 23L258 22z"/>
<path style="fill:#6d6d6d; stroke:none;" d="M237 23L238 24L237 23z"/>
<path style="fill:#a1a1a1; stroke:none;" d="M278 23L279 24L278 23z"/>
<path style="fill:#757575; stroke:none;" d="M321 23L322 24L321 23z"/>
<path style="fill:#646464; stroke:none;" d="M326 23L327 24L326 23z"/>
<path style="fill:#6d6d6d; stroke:none;" d="M338 23L339 24L338 23z"/>
<path style="fill:#606060; stroke:none;" d="M341 23L342 24L341 23z"/>
<path style="fill:#808080; stroke:none;" d="M350 23L351 24L350 23z"/>
<path style="fill:#666666; stroke:none;" d="M282 24L283 25L282 24z"/>
<path style="fill:#676767; stroke:none;" d="M294 24L295 25L294 24z"/>
<path style="fill:#565656; stroke:none;" d="M236 25L237 26L236 25z"/>
<path style="fill:#6b6b6b; stroke:none;" d="M267 25L268 26L267 25z"/>
<path style="fill:#808080; stroke:none;" d="M304 25L305 26L304 25z"/>
<path style="fill:#8c8c8c; stroke:none;" d="M325 25L326 26L325 25z"/>
<path style="fill:#7e7e7e; stroke:none;" d="M340 25L341 26L340 25z"/>
<path style="fill:#696969; stroke:none;" d="M354 25L355 26L354 25z"/>
<path style="fill:#898989; stroke:none;" d="M374 25L375 26L374 25z"/>
<path style="fill:#000000; stroke:none;" d="M207 37C212.463 36.0608 214.048 30.6881 216 26C210.647 26.9201 208.521 32.1921 207 37z"/>
<path style="fill:#8e8e8e; stroke:none;" d="M227 26L228 27L227 26z"/>
<path style="fill:#808080; stroke:none;" d="M255 26L256 27L255 26z"/>
<path style="fill:#8c8c8c; stroke:none;" d="M293 26L294 27L293 26z"/>
<path style="fill:#8f8f8f; stroke:none;" d="M337.333 26.6667L337.667 27.3333L337.333 26.6667z"/>
<path style="fill:#a4a4a4; stroke:none;" d="M362 26L363 27L362 26z"/>
<path style="fill:#505050; stroke:none;" d="M363 26L363 27L374 27L363 26z"/>
<path style="fill:#727272; stroke:none;" d="M211 27L212 28L211 27z"/>
<path style="fill:#646464; stroke:none;" d="M215 27L216 28L215 27z"/>
<path style="fill:#a5a5a5; stroke:none;" d="M223 27L224 28L223 27z"/>
<path style="fill:#929292; stroke:none;" d="M277 27L278 28L277 27z"/>
<path style="fill:#a0a0a0; stroke:none;" d="M280 27L281 28L280 27z"/>
<path style="fill:#808080; stroke:none;" d="M309 27L310 28L309 27z"/>
<path style="fill:#9d9d9d; stroke:none;" d="M339 27L340 28L339 27z"/>
<path style="fill:#969696; stroke:none;" d="M353 27L354 28L353 27z"/>
<path style="fill:#898989; stroke:none;" d="M226 28L227 29L226 28z"/>
<path style="fill:#5d5d5d; stroke:none;" d="M266.333 28.6667L266.667 29.3333L266.333 28.6667z"/>
<path style="fill:#6d6d6d; stroke:none;" d="M287 28L288 29L287 28z"/>
<path style="fill:#a9a9a9; stroke:none;" d="M302 28L303 29L302 28z"/>
<path style="fill:#7c7c7c; stroke:none;" d="M318 28L319 29L318 28z"/>
<path style="fill:#838383; stroke:none;" d="M347 28L348 29L347 28z"/>
<path style="fill:#626262; stroke:none;" d="M361 28L362 29L361 28z"/>
<path style="fill:#676767; stroke:none;" d="M210 29L211 30L210 29z"/>
<path style="fill:#717171; stroke:none;" d="M214 29L215 30L214 29z"/>
<path style="fill:#969696; stroke:none;" d="M222 29L223 30L222 29z"/>
<path style="fill:#949494; stroke:none;" d="M286 29L287 30L286 29z"/>
<path style="fill:#888888; stroke:none;" d="M225 30L226 31L225 30z"/>
<path style="fill:#808080; stroke:none;" d="M252 30L253 31L252 30z"/>
<path style="fill:#9a9a9a; stroke:none;" d="M269.333 30.6667L269.667 31.3333L269.333 30.6667z"/>
<path style="fill:#6a6a6a; stroke:none;" d="M301 30L302 31L301 30z"/>
<path style="fill:#5d5d5d; stroke:none;" d="M209 31L210 32L209 31z"/>
<path style="fill:#808080; stroke:none;" d="M213 31L214 32L213 31z"/>
<path style="fill:#8a8a8a; stroke:none;" d="M221 31L222 32L221 31z"/>
<path style="fill:#969696; stroke:none;" d="M276 31L276 33L278 31L276 31z"/>
<path style="fill:#575757; stroke:none;" d="M290 31L291 32L290 31z"/>
<path style="fill:#adadad; stroke:none;" d="M336 31L336 33L338 31L336 31z"/>
<path style="fill:#acacac; stroke:none;" d="M359 31L365 33L365 32L359 31z"/>
<path style="fill:#626262; stroke:none;" d="M200 32L201 33L200 32z"/>
<path style="fill:#8a8a8a; stroke:none;" d="M224 32L225 33L224 32z"/>
<path style="fill:#cacaca; stroke:none;" d="M258 32L257 34L259 34L258 32z"/>
<path style="fill:#5e5e5e; stroke:none;" d="M265.333 32.6667L265.667 33.3333L265.333 32.6667z"/>
<path style="fill:#686868; stroke:none;" d="M306 32L307 33L306 32z"/>
<path style="fill:#858585; stroke:none;" d="M321 32L322 33L321 32z"/>
<path style="fill:#6d6d6d; stroke:none;" d="M350 32L351 33L350 32z"/>
<path style="fill:#8d8d8d; stroke:none;" d="M212 33L213 34L212 33z"/>
<path style="fill:#808080; stroke:none;" d="M220 33L221 34L220 33z"/>
<path style="fill:#8a8a8a; stroke:none;" d="M289 33L290 34L289 33z"/>
<path style="fill:#a5a5a5; stroke:none;" d="M299 33L300 34L299 33z"/>
<path style="fill:#9d9d9d; stroke:none;" d="M315 33L316 34L315 33z"/>
<path style="fill:#a1a1a1; stroke:none;" d="M344 33L345 34L344 33z"/>
<path style="fill:#6e6e6e; stroke:none;" d="M199 34L200 35L199 34z"/>
<path style="fill:#8c8c8c; stroke:none;" d="M223 34L224 35L223 34z"/>
<path style="fill:#818181; stroke:none;" d="M249 34L250 35L249 34z"/>
<path style="fill:#111111; stroke:none;" d="M257 34L258 35L257 34z"/>
<path style="fill:#343434; stroke:none;" d="M329.333 34.6667L329.667 35.3333L329.333 34.6667z"/>
<path style="fill:#828282; stroke:none;" d="M364 34L365 35L364 34z"/>
<path style="fill:#969696; stroke:none;" d="M211 35L212 36L211 35z"/>
<path style="fill:#797979; stroke:none;" d="M219 35L220 36L219 35z"/>
<path style="fill:#777777; stroke:none;" d="M256.667 35.3333L257.333 35.6667L256.667 35.3333z"/>
<path style="fill:#7e7e7e; stroke:none;" d="M281 35L282 36L281 35z"/>
<path style="fill:#6a6a6a; stroke:none;" d="M298 35L299 36L298 35z"/>
<path style="fill:#717171; stroke:none;" d="M314 35L315 36L314 35z"/>
<path style="fill:#737373; stroke:none;" d="M343 35L344 36L343 35z"/>
<path style="fill:#797979; stroke:none;" d="M198 36L199 37L198 36z"/>
<path style="fill:#909090; stroke:none;" d="M222 36L223 37L222 36z"/>
<path style="fill:#a5a5a5; stroke:none;" d="M255 36L256 37L255 36z"/>
<path style="fill:#000000; stroke:none;" d="M256 36L254 40L256 36z"/>
<path style="fill:#616161; stroke:none;" d="M264.333 36.6667L264.667 37.3333L264.333 36.6667z"/>
<path style="fill:#989898; stroke:none;" d="M268.333 36.6667L268.667 37.3333L268.333 36.6667z"/>
<path style="fill:#a3a3a3; stroke:none;" d="M280 36L281 37L280 36z"/>
<path style="fill:#adadad; stroke:none;" d="M329.333 36.6667L329.667 37.3333L329.333 36.6667z"/>
<path style="fill:#6f6f6f; stroke:none;" d="M218 37L219 38L218 37z"/>
<path style="fill:#585858; stroke:none;" d="M303 37L304 38L303 37z"/>
<path style="fill:#5e5e5e; stroke:none;" d="M318 37L319 38L318 37z"/>
<path style="fill:#919191; stroke:none;" d="M327 37L328 38L327 37z"/>
<path style="fill:#bababa; stroke:none;" d="M356 37L356 38L363 38L356 37z"/>
<path style="fill:#848484; stroke:none;" d="M197 38L198 39L197 38z"/>
<path style="fill:#949494; stroke:none;" d="M221 38L222 39L221 38z"/>
<path style="fill:#7e7e7e; stroke:none;" d="M246 38L247 39L246 38z"/>
<path style="fill:#c0c0c0; stroke:none;" d="M256.333 38.6667L256.667 39.3333L256.333 38.6667z"/>
<path style="fill:#5f5f5f; stroke:none;" d="M286 38L287 39L286 38z"/>
<path style="fill:#a5a5a5; stroke:none;" d="M296 38L297 39L296 38z"/>
<path style="fill:#9c9c9c; stroke:none;" d="M355 38L356 39L355 38z"/>
<path style="fill:#dedede; stroke:none;" d="M87 39L87 42L157 42L157 39L87 39z"/>
<path style="fill:#636363; stroke:none;" d="M253 39L256 41L256 40L253 39z"/>
<path style="fill:#949494; stroke:none;" d="M302 39L303 40L302 39z"/>
<path style="fill:#8f8f8f; stroke:none;" d="M317 39L318 40L317 39z"/>
<path style="fill:#6e6e6e; stroke:none;" d="M326 39L327 40L326 39z"/>
<path style="fill:#7d7d7d; stroke:none;" d="M346 39L347 40L346 39z"/>
<path style="fill:#dedede; stroke:none;" d="M406 39L406 42L479 42L479 39L406 39z"/>
<path style="fill:#929292; stroke:none;" d="M196 40L197 41L196 40z"/>
<path style="fill:#979797; stroke:none;" d="M220 40L221 41L220 40z"/>
<path style="fill:#939393; stroke:none;" d="M285 40L286 41L285 40z"/>
<path style="fill:#6d6d6d; stroke:none;" d="M295 40L296 41L295 40z"/>
<path style="fill:#989898; stroke:none;" d="M311 40L312 41L311 40z"/>
<path style="fill:#969696; stroke:none;" d="M340 40L341 41L340 40z"/>
<path style="fill:#6d6d6d; stroke:none;" d="M354 40L355 41L354 40z"/>
<path style="fill:#d5d5d5; stroke:none;" d="M204 41L204 42L214 42L204 41z"/>
<path style="fill:#636363; stroke:none;" d="M263 41L264 42L263 41z"/>
<path style="fill:#646464; stroke:none;" d="M276 41L277 42L276 41z"/>
<path style="fill:#a6a6a6; stroke:none;" d="M328.333 41.6667L328.667 42.3333L328.333 41.6667z"/>
<path style="fill:#7b7b7b; stroke:none;" d="M243 42L244 43L243 42z"/>
<path style="fill:#696969; stroke:none;" d="M310 42L311 43L310 42z"/>
<path style="fill:#666666; stroke:none;" d="M339 42L340 43L339 42z"/>
<path style="fill:#a7a7a7; stroke:none;" d="M293 43L294 44L293 43z"/>
<path style="fill:#d1d1d1; stroke:none;" d="M353 43L353 44L364 45L353 43z"/>
<path style="fill:#6b6b6b; stroke:none;" d="M239 44L240 45L239 44z"/>
<path style="fill:#666666; stroke:none;" d="M262.333 44.6667L262.667 45.3333L262.333 44.6667z"/>
<path style="fill:#8d8d8d; stroke:none;" d="M299 44L300 45L299 44z"/>
<path style="fill:#6a6a6a; stroke:none;" d="M314 44L315 45L314 44z"/>
<path style="fill:#5d5d5d; stroke:none;" d="M343 44L344 45L343 44z"/>
<path style="fill:#656565; stroke:none;" d="M249 45L249 46L254 46L249 45z"/>
<path style="fill:#676767; stroke:none;" d="M282 45L283 46L282 45z"/>
<path style="fill:#6e6e6e; stroke:none;" d="M292 45L293 46L292 45z"/>
<path style="fill:#757575; stroke:none;" d="M240 46L241 47L240 46z"/>
<path style="fill:#949494; stroke:none;" d="M322 46L323 47L322 46z"/>
<path style="fill:#a8a8a8; stroke:none;" d="M327 46L327 49L328 49L327 46z"/>
<path style="fill:#9a9a9a; stroke:none;" d="M342 46L343 47L342 46z"/>
<path style="fill:#959595; stroke:none;" d="M362 46L363 47L362 46z"/>
<path style="fill:#5f5f5f; stroke:none;" d="M273 47L274 48L273 47z"/>
<path style="fill:#969696; stroke:none;" d="M281 47L282 48L281 47z"/>
<path style="fill:#9b9b9b; stroke:none;" d="M307 47L308 48L307 47z"/>
<path style="fill:#979797; stroke:none;" d="M336 47L337 48L336 47M192 48L193 49L192 48z"/>
<path style="fill:#d9d9d9; stroke:none;" d="M216 48L216 49L236 49L216 48z"/>
<path style="fill:#717171; stroke:none;" d="M236 48L237 49L236 48z"/>
<path style="fill:#e0e0e0; stroke:none;" d="M239 48L239 49L247 49L239 48z"/>
<path style="fill:#6a6a6a; stroke:none;" d="M247 48L248 49L247 48z"/>
<path style="fill:#696969; stroke:none;" d="M253 48L254 49L253 48z"/>
<path style="fill:#d8d8d8; stroke:none;" d="M254 48L254 49L262 49L254 48z"/>
<path style="fill:#868686; stroke:none;" d="M264 48L265 49L264 48z"/>
<path style="fill:#dedede; stroke:none;" d="M265 48L265 49L273 49L265 48z"/>
<path style="fill:#a8a8a8; stroke:none;" d="M290 48L291 49L290 48z"/>
<path style="fill:#dedede; stroke:none;" d="M297 48L297 49L307 49L297 48z"/>
<path style="fill:#e0e0e0; stroke:none;" d="M312 48L312 49L321 49L312 48z"/>
<path style="fill:#717171; stroke:none;" d="M321 48L322 49L321 48z"/>
<path style="fill:#dbdbdb; stroke:none;" d="M328 48L328 49L336 49L328 48z"/>
<path style="fill:#919191; stroke:none;" d="M341 48L342 49L341 48z"/>
<path style="fill:#d8d8d8; stroke:none;" d="M342 48L342 49L361 49L342 48z"/>
<path style="fill:#6a6a6a; stroke:none;" d="M289 50L290 51L289 50z"/>
<path style="fill:#656565; stroke:none;" d="M278 52L279 53L278 52z"/>
<path style="fill:#4b6d23; stroke:none;" d="M189 53L189 54L245 54L275 55C271.204 50.6555 258.527 53 253 53L189 53z"/>
<path style="fill:#d8d8d8; stroke:none;" d="M288 53L288 54C310.274 54 337.337 49.8424 359 55C355.492 50.9858 345.06 53 340 53L288 53z"/>
<path style="fill:#6fa333; stroke:none;" d="M186 60L252 60C259.585 60 270.939 62.7131 274 54L209 54C200.8 54 189.97 51.2664 186 60z"/>
<path style="fill:#949494; stroke:none;" d="M277 54L278 55L277 54z"/>
<path style="fill:#717171; stroke:none;" d="M357 56L358 57L357 56z"/>
<path style="fill:#676767; stroke:none;" d="M274 59L275 60L274 59M355 59L356 60L355 59z"/>
<path style="fill:#161616; stroke:none;" d="M201 185C199.298 163.434 200 141.659 200 120C200 109.262 198.908 97.2129 205.638 88.0147C218.444 70.5135 256.732 73.2656 266.08 93C270.469 102.265 269 114.062 269 124C269 144.695 271.186 166.707 267 187C271.227 184.26 270 178.572 270 174L270 139C270 125.795 270.986 112.159 269.907 99C267.706 72.1788 226.207 68.0038 208.04 80.9159C199.406 87.0526 198.004 98.2288 198 108L198 160C198 166.444 195.255 180.941 201 185M58 185L59 167L36 167L37 206L84 205L84 204L38 204L38 169C53.7664 169 57 169.637 57 186C62.185 186 72.2461 187.932 76.6821 184.972C81.1332 182.002 80.7594 156.703 77.821 152.434C75.4612 149.005 69.568 150 66 150C57.6324 149.999 47.5304 151.68 41.2245 144.892C36.3324 139.626 37 132.655 37 126C37 111.899 31.9731 88.3369 47 80.4421C60.0912 73.5643 83.5028 78 98 78L98 113L80 113L80 96C74.815 96 64.7539 94.0676 60.3179 97.0278C55.9115 99.9682 56.2809 124.356 59.179 128.566C64.2284 135.903 84.245 128.559 91.9992 132.457C107.912 140.455 101.154 176.376 100 191L101 191C105.027 177.375 102.755 157.216 101.957 143C101.674 137.962 99.674 132.896 94.9815 130.457C85.9012 125.737 67.9518 134.312 60.7423 126.436C56.7498 122.075 57.4032 102.151 62.1481 98.6034C66.0996 95.6494 73.3344 97 78 97L78 116L100 115L101 77C88.8027 74.0961 74.5064 76 62 76C55.7203 76 48.5942 75.6071 43.0039 79.0085C29.0161 87.5191 33.9338 115.102 34.0008 129C34.0274 134.519 34.2558 141.335 37.6528 145.955C43.1864 153.482 55.8067 150.997 64 151C68.3241 151.002 74.1853 150.29 76.2577 155.109C78.4577 160.224 79.0948 179.868 73.8519 182.972C69.6845 185.44 62.7508 183.869 58 185M479 185L479 167L456 167L456 190L458 190L459.603 170.603L477 169L477 187C482.583 187 492.075 188.807 496.772 185.258C502.546 180.894 500.89 162.556 499.852 156.005C498.037 144.558 471.316 152.71 463.105 146.351C452.485 138.126 455.491 107.149 457.301 95C460.352 74.5173 483.831 78 499 78C503.59 78 513.888 76.0946 517.397 79.6034C522.557 84.7635 519 105.893 519 113L501 113L501 96C495.602 96 484.927 93.9519 480.318 97.0278C475.56 100.203 476.488 124.439 479.858 128.682C482.371 131.845 487.438 131 491 131C499.457 131.001 511.319 129.028 517.606 136.133C521.572 140.616 521 146.437 521 152C521 164.79 526.044 191.442 513.906 199.867C503.388 207.166 486.124 204 474 204L474 205C485.602 205 505.913 208.876 515.815 201.856C528.607 192.787 523.005 162.627 523 149C522.998 143.479 523.015 136.583 518.698 132.419C509.806 123.843 487.556 135.799 481.028 125.697C478.109 121.179 478.24 100.934 483.148 98.0278C487.189 95.6355 494.45 97 499 97L499 116L520 115L521 77C508.016 73.1621 484.348 73.9452 471 76.4676C466.074 77.3985 461.021 79.7687 458.225 84.0934C452.238 93.3503 455 108.484 455 119C455 127.012 453.117 137.789 457.533 144.906C462.768 153.342 475.558 150.997 484 151C488.324 151.002 494.185 150.29 496.258 155.109C498.458 160.224 499.095 179.868 493.852 182.972C489.928 185.295 483.468 183.936 479 185M109 77C109 83.6187 107.095 93.4246 111 99L112 99L117 97L116 128L116 185L109 187L118 186L118 95L111 95L111 79L155 79C163.208 79 172.29 78.5109 178.946 84.2747C191.2 94.8861 187.201 126.408 185.282 141C184.492 147.002 183.009 152.469 177.907 156.351C168.041 163.857 151.577 161 140 161L140 187L150 187L151 195L152 195L152 185L141 185L141 163C152.753 163 171.234 165.852 180.812 157.467C192.96 146.831 187.07 114.65 186.999 100C186.97 94.0011 186.333 86.7743 181.775 82.3403C175.658 76.3889 166.84 77 159 77L109 77z"/>
<path style="fill:#a9771d; stroke:none;" d="M225 77L225 78L242 78L225 77z"/>
<path style="fill:#161616; stroke:none;" d="M278 77L278 98L286 97L286 155L285 186C290.537 184.814 288 168.95 288 164L288 95L280 95L280 79L327 79C334.925 79 343.891 78.8688 349.786 85.108C356.219 91.9161 355 101.397 355 110C355 126.43 359.829 152.994 337 155C340.259 163.4 344.754 180.669 352 186L340 156C363.275 153.955 357 122.5 357 106C357 98.1148 357.605 88.4621 351.701 82.2245C345.998 76.2 336.515 77 329 77L278 77M367 77L367 115L386 114C386 105.373 384.108 97.1287 395 97L394 128L394 185L387 185L389 197L389 187L396 187L396 96L385 96L385 113L369 113L369 79L445 79L445 113L429 113L429 96L418 96L418 187L429 186L429 185L419 185L419 118C419 108.838 415.899 97.143 428 97L427 115L446 114L447 77L367 77z"/>
<path style="fill:#764d0f; stroke:none;" d="M52 78L52 79L98 79C86.0611 73.9902 65.0035 78 52 78z"/>
<path style="fill:#95691b; stroke:none;" d="M220.667 78.3333L221.333 78.6667L220.667 78.3333z"/>
<path style="fill:#fdaf21; stroke:none;" d="M267 187C268.997 171.197 268 154.926 268 139C268 125.144 272.012 103.625 265.547 91C256.873 74.0616 218.409 71.9997 206.39 86.0934C200.068 93.5069 201 102.944 201 112L201 161C201 166.469 198.539 179.989 202.028 184.397C203.99 186.875 210.089 186.472 213 187.298C219.085 189.025 224.992 191.599 230 195.519C232.71 197.639 235.553 201.796 239 202.654C242.583 203.546 245.661 199.222 248 197.184C253.534 192.362 259.937 188.932 267 187z"/>
<path style="fill:#805c1c; stroke:none;" d="M246.667 78.3333L247.333 78.6667L246.667 78.3333z"/>
<path style="fill:#74622f; stroke:none;" d="M472 78L472 79L518 79C506.061 73.9902 485.003 78 472 78z"/>
<path style="fill:#995f0a; stroke:none;" d="M48.6667 79.3333L49.3333 79.6667L48.6667 79.3333z"/>
<path style="fill:#ff9900; stroke:none;" d="M56 187L56 170L39 170L39 203C55.5544 203 91.291 209.835 99.3966 189.896C102.497 182.268 100 169.201 100 161C100 153.932 102.31 141.92 97.5664 136.109C88.2997 124.758 66.6836 138.316 59.0093 127.772C54.752 121.922 54.8408 100.903 61.0586 96.6034C65.9536 93.2185 75.2944 95 81 95L81 113L98 113L98 79C83.576 79 57.8435 74.0593 45.0039 81.1397C31.5721 88.5466 36.9992 116.103 37 129C37.0004 134.507 36.6191 140.397 40.419 144.891C49.5033 155.636 69.9083 141.76 78.1065 153.189C82.3357 159.085 82.1444 180.907 75.8912 185.258C70.9155 188.72 61.7847 187 56 187z"/>
<path style="fill:#f6b82e; stroke:none;" d="M100 79L100 115L81 115L81 116L102 116L102 79L100 79z"/>
<path style="fill:#aa6e0e; stroke:none;" d="M111 79L111 95L112 95L111 79z"/>
<path style="fill:#df9213; stroke:none;" d="M112 79L112 80L164 80L147 79L112 79z"/>
<path style="fill:#a26d15; stroke:none;" d="M164 79L164 80L169 80L164 79z"/>
<path style="fill:#5b451c; stroke:none;" d="M280 79L280 95L281 95L280 79z"/>
<path style="fill:#dda32e; stroke:none;" d="M281 79L281 80L339 80L320 79L281 79z"/>
<path style="fill:#3c321c; stroke:none;" d="M369 79L369 113L370 113L369 79z"/>
<path style="fill:#ddad3c; stroke:none;" d="M370 79L370 80L444 80L421 79L370 79z"/>
<path style="fill:#b08e37; stroke:none;" d="M444 79L444 112L430 112L430 113L445 113L444 79z"/>
<path style="fill:#503611; stroke:none;" d="M446 79L446 114L430 114L430 115L447 115C447 104.613 450.011 88.5597 446 79z"/>
<path style="fill:#feb320; stroke:none;" d="M447 79L447 115L430 115L430 116L448 116C448 105.351 451.111 88.7979 447 79z"/>
<path style="fill:#dda529; stroke:none;" d="M448 79L448 116L449 116C449 105.351 452.111 88.7979 448 79z"/>
<path style="fill:#af903b; stroke:none;" d="M469.667 79.3333L470.333 79.6667L469.667 79.3333z"/>
<path style="fill:#fbcb4c; stroke:none;" d="M476 187L476 170L459 170C459 184.172 457.821 194.531 472.285 202.012C476.109 203.989 481.823 203 486 203C496.796 203 516.827 206.592 519.66 191.999C522.204 178.891 520 163.351 520 150C520 144.871 521.093 138.271 516.772 134.51C507.919 126.806 480.331 137.935 478.148 123.999C477.129 117.49 475.443 99.651 482.059 96.0278C486.926 93.3622 495.58 95 501 95L501 113L518 113L518 79C504.667 79 491.333 78.9365 478 79.0008C471.889 79.0302 464.748 79.684 460.879 85.1049C454.981 93.3691 458 109.349 458 119C458 126.409 455.659 138.659 460.653 144.786C469.586 155.747 490.302 141.719 498.397 153.109C502.502 158.885 501.926 181.059 495.891 185.258C490.915 188.72 481.785 187 476 187z"/>
<path style="fill:#887336; stroke:none;" d="M518 79L518 113L519 113L518 79z"/>
<path style="fill:#794d0d; stroke:none;" d="M520 79L520 115L521 115C521 104.613 524.011 88.5595 520 79z"/>
<path style="fill:#feba29; stroke:none;" d="M521 79L521 115L501 115L501 116L522 116C522 105.351 525.111 88.7977 521 79z"/>
<path style="fill:#b98c25; stroke:none;" d="M522 79L522 116L501 116L501 117L523 117C523 106.089 526.211 89.0358 522 79z"/>
<path style="fill:#ff9d06; stroke:none;" d="M112 80L112 95L119 95L119 185L140 188C139.12 184.305 139.001 180.789 139 177C138.998 172.936 137.67 165.851 140.028 162.318C142.431 158.716 149.309 160 153 160C162.153 160 174.828 162.191 181.197 153.895C185.38 148.445 185 141.485 185 135C185 121.804 186.869 107.015 184.674 94C183.77 88.635 180.994 84.1225 175.999 81.7238C169.8 78.7464 161.687 80 155 80L112 80z"/>
<path style="fill:#fdb52a; stroke:none;" d="M281 80L281 95L289 95L289 161L290.028 185.57L301 190.901L317 203L317 187L309 187L309 157L318 157L332 192L350 186L337 154C360.627 153.51 354 124.764 354 108C354 100.26 355.855 90.2024 349.786 84.2245C344.308 78.8286 336.022 80 329 80L281 80z"/>
<path style="fill:#fcc23e; stroke:none;" d="M370 80L370 112L384 112C384 99.8571 383.609 95 397 95L397 187L389 187C389 189.315 388.856 191.694 389.059 194.002C390.662 212.298 412.587 190.424 421 188L421 187L417 187L417 122L418.028 97.3179L430 95L430 112L444 112L444 80L370 80z"/>
<path style="fill:#68501d; stroke:none;" d="M354.333 86.6667L354.667 87.3333L354.333 86.6667z"/>
<path style="fill:#e1a92a; stroke:none;" d="M185 87L186 91L187 91L185 87z"/>
<path style="fill:#937022; stroke:none;" d="M266.333 87.6667L266.667 88.3333L266.333 87.6667z"/>
<path style="fill:#dca328; stroke:none;" d="M355.333 87.6667L355.667 88.3333L355.333 87.6667z"/>
<path style="fill:#febd2d; stroke:none;" d="M267 89C275.298 119.412 271.346 154.658 270 186L272 186L272 117C272 107.884 273.887 96.1199 267 89z"/>
<path style="fill:#ffad19; stroke:none;" d="M356 89C357.282 105.249 361.573 130.749 354.786 145.999C351.782 152.749 343.145 153.549 341 160L342 160C346.404 156.377 352.125 156.13 355.518 150.907C363.007 139.379 359.001 118.204 359 105C359 99.4536 359.338 93.6854 356 89z"/>
<path style="fill:#a18235; stroke:none;" d="M458.333 89.6667L458.667 90.3333L458.333 89.6667z"/>
<path style="fill:#845b16; stroke:none;" d="M184.333 91.6667L184.667 92.3333L184.333 91.6667z"/>
<path style="fill:#74571e; stroke:none;" d="M186.333 91.6667L186.667 92.3333L186.333 91.6667z"/>
<path style="fill:#fdbd2e; stroke:none;" d="M187 91C188.423 109.038 195.45 148.439 176.996 159.517C167.218 165.387 152.926 163 142 163L142 185L144 185L144 164C155.017 164 171.562 167.133 180.985 160.351C194.455 150.655 189 123.523 189 109C189 103.148 190.104 96.1819 187 91z"/>
<path style="fill:#c78b1e; stroke:none;" d="M231 92L231 93L237 93L231 92z"/>
<path style="fill:#161616; stroke:none;" d="M228.005 93.7423C219.188 97.1749 222 110.5 222 118L222 161C222 167.515 220.684 175.69 222.434 181.996C224.465 189.32 234.712 190.732 240.985 188.258C249.715 184.815 247 171.412 247 164L247 121C247 114.508 248.338 106.292 246.566 100.015C244.594 93.0283 233.992 91.4114 228.005 93.7423z"/>
<path style="fill:#d19c2e; stroke:none;" d="M354 93L354 141L355 141C355 127.474 359.209 105.414 354 93z"/>
<path style="fill:#886e2f; stroke:none;" d="M457 93L457 139L458 139C458 125.997 462.01 104.939 457 93z"/>
<path style="fill:#7d500d; stroke:none;" d="M61 95L61 96L80 96L80 113L81 113L81 95L61 95z"/>
<path style="fill:#674410; stroke:none;" d="M118 95L118 186L119 186L119 123L118 95z"/>
<path style="fill:#845a15; stroke:none;" d="M185 95L185 140L186 140C186 127.258 189.91 106.701 185 95z"/>
<path style="fill:#7d5b1d; stroke:none;" d="M187 95L187 143L188 143C188 129.474 192.209 107.414 187 95z"/>
<path style="fill:#fdb92b; stroke:none;" d="M224 182L225 182L225 117C225 106.699 225.204 96.692 238 96C225.479 90.7481 224 103.025 224 112L224 182z"/>
<path style="fill:#685013; stroke:none;" d="M234 96L234 97L240 96L234 96z"/>
<path style="fill:#d59520; stroke:none;" d="M288 95L288 186L289 186L289 123L288 95z"/>
<path style="fill:#ac852f; stroke:none;" d="M385 95L385 96L397 96L385 95z"/>
<path style="fill:#ab8833; stroke:none;" d="M418 95L418 96L430 96L418 95z"/>
<path style="fill:#826c31; stroke:none;" d="M481 95L481 96L501 96L481 95z"/>
<path style="fill:#bf7b0e; stroke:none;" d="M139 96L139 144L140 144C140 130.474 144.209 108.414 139 96z"/>
<path style="fill:#161616; stroke:none;" d="M140 96L140 144C145.763 144 156.981 146.135 161.682 142.258C167.64 137.344 164.003 115.294 164 108C163.999 105.034 164.611 100.932 162.397 98.564C157.951 93.81 145.879 96 140 96z"/>
<path style="fill:#7b5414; stroke:none;" d="M158.667 96.3333L159.333 96.6667L158.667 96.3333z"/>
<path style="fill:#b38722; stroke:none;" d="M232.667 96.3333L233.333 96.6667L232.667 96.3333z"/>
<path style="fill:#d9a328; stroke:none;" d="M239 96L239 97L242 97L239 96z"/>
<path style="fill:#86611e; stroke:none;" d="M267.333 96.6667L267.667 97.3333L267.333 96.6667z"/>
<path style="fill:#4d3c1b; stroke:none;" d="M309 96L309 142L330 142L330 141L310 141C310 128.258 313.91 107.701 309 96z"/>
<path style="fill:#161616; stroke:none;" d="M310 96L310 141C315.142 141 327.53 143.263 331.397 139.397C333.652 137.141 332.999 132.886 333 130C333.003 122.921 336.451 102.464 330.682 97.6034C326.317 93.9255 315.412 96 310 96z"/>
<path style="fill:#b88e30; stroke:none;" d="M384 96L384 112L370 112L370 113L385 113L384 96z"/>
<path style="fill:#41351c; stroke:none;" d="M396 96L396 187L397 187L397 124L396 96z"/>
<path style="fill:#b68d30; stroke:none;" d="M417 96L417 187L418 187L418 124L417 96z"/>
<path style="fill:#43381f; stroke:none;" d="M429 96L429 113L430 113L429 96z"/>
<path style="fill:#7e6427; stroke:none;" d="M62 97L62 98L78 98L62 97z"/>
<path style="fill:#d39e2b; stroke:none;" d="M112 97L112 99L116 99L116 97L112 97z"/>
<path style="fill:#634d1e; stroke:none;" d="M116.333 97.6667L116.667 98.3333L116.333 97.6667z"/>
<path style="fill:#000000; stroke:none;" d="M230.059 98.0278C223.701 101.51 226 112.967 226 119L226 162C226 168.169 224.719 175.979 226.318 181.956C227.79 187.462 235.561 188.165 239.956 185.821C246.841 182.149 245 172.477 245 166L245 121C245 115.124 246.558 106.555 244.258 101.059C242.245 96.2489 234.19 95.7651 230.059 98.0278z"/>
<path style="fill:#dfa62a; stroke:none;" d="M281 97L281 99L286 99L286 97L281 97z"/>
<path style="fill:#553a12; stroke:none;" d="M387 97L387 98L395 98L387 97M420 97L420 98L428 98L420 97z"/>
<path style="fill:#805612; stroke:none;" d="M482 97L482 98L499 98L482 97z"/>
<path style="fill:#fdbe30; stroke:none;" d="M60 127L61 127C61 120.758 58.0007 103.668 64.1481 100.028C67.7787 97.8782 73.9273 99 78 99C56.2329 89.8662 60 113.237 60 127z"/>
<path style="fill:#42351b; stroke:none;" d="M141 98L141 142L142 142C142 129.52 145.81 109.463 141 98z"/>
<path style="fill:#e2aa29; stroke:none;" d="M142 98L143 142L144 142L144 100L161 100L142 98z"/>
<path style="fill:#b57511; stroke:none;" d="M311 98L311 128L313 140L311 98z"/>
<path style="fill:#febd2d; stroke:none;" d="M312 98L312 139L313 139L313 99L328 99L312 98z"/>
<path style="fill:#c89524; stroke:none;" d="M313 99L313 100L330 100L313 99z"/>
<path style="fill:#362814; stroke:none;" d="M386 98L386 114L370 114L370 115L387 115L386 98z"/>
<path style="fill:#ffbc2d; stroke:none;" d="M387 98L387 115L370 115L370 116L389 116L389 99L395 99L387 98z"/>
<path style="fill:#4b3412; stroke:none;" d="M419 98L419 185L420 185L420 125L419 98z"/>
<path style="fill:#feb21f; stroke:none;" d="M420 98L420 185L421 185L421 99L428 99L420 98z"/>
<path style="fill:#e69510; stroke:none;" d="M481 98L480 127L481 127L481 100L484 100L481 98z"/>
<path style="fill:#f8b72a; stroke:none;" d="M483 98L483 99L499 99L483 98z"/>
<path style="fill:#8f5a0b; stroke:none;" d="M57 99L57 126L58 126L57 99z"/>
<path style="fill:#febd30; stroke:none;" d="M142 99L142 142L143 142C143 129.781 146.71 110.226 142 99z"/>
<path style="fill:#836418; stroke:none;" d="M227 99L228 100L227 99z"/>
<path style="fill:#dea629; stroke:none;" d="M421 99L421 185L422 185L422 126L421 99z"/>
<path style="fill:#725c28; stroke:none;" d="M59 100L59 126L60 126L59 100z"/>
<path style="fill:#000000; stroke:none;" d="M144 100L144 141C148.227 141 157.05 142.674 160.258 139.397C165.114 134.436 162.003 116.618 162 110C161.999 107.383 162.749 102.891 160.397 101.028C156.988 98.3277 148.167 100 144 100z"/>
<path style="fill:#b48923; stroke:none;" d="M189 100L189 143L190 143C190 130.781 193.71 111.226 189 100z"/>
<path style="fill:#000000; stroke:none;" d="M313 100L313 139L329.258 137.972L331 128L331 100L313 100z"/>
<path style="fill:#5f4a1f; stroke:none;" d="M333 100L333 136L334 136C334 125.613 337.011 109.56 333 100z"/>
<path style="fill:#f8b62a; stroke:none;" d="M481 100L481 128L482 128L481 100z"/>
<path style="fill:#be8f25; stroke:none;" d="M61 101L60 128C64.2295 124.304 63.1176 106.047 61 101z"/>
<path style="fill:#ca8411; stroke:none;" d="M164 101L164 138L165 138C165 127.351 168.111 110.798 164 101z"/>
<path style="fill:#604516; stroke:none;" d="M200 101L200 181L201 181L201 126L200 101z"/>
<path style="fill:#996a18; stroke:none;" d="M221 101L221 180L222 180L222 126L221 101z"/>
<path style="fill:#684c1a; stroke:none;" d="M223 101L223 181L224 181L224 126L223 101z"/>
<path style="fill:#af791b; stroke:none;" d="M247 101L247 180L248 180L248 126L247 101z"/>
<path style="fill:#b67b15; stroke:none;" d="M270 101L270 181L271 181L271 126L270 101z"/>
<path style="fill:#4a3818; stroke:none;" d="M268 102L268 181L269 181L269 127L268 102z"/>
<path style="fill:#ca9826; stroke:none;" d="M225 103L225 184L226 184L226 128L225 103z"/>
<path style="fill:#bd8d23; stroke:none;" d="M81 116L81 117L102 117L81 116z"/>
<path style="fill:#715518; stroke:none;" d="M370 116L370 117L389 117L370 116z"/>
<path style="fill:#674f18; stroke:none;" d="M430 116L430 117L437 117L430 116z"/>
<path style="fill:#957a33; stroke:none;" d="M478.333 126.667L478.667 127.333L478.333 126.667z"/>
<path style="fill:#65420f; stroke:none;" d="M89.6667 131.333L90.3333 131.667L89.6667 131.333z"/>
<path style="fill:#977324; stroke:none;" d="M100 135L101 139L102 139L100 135z"/>
<path style="fill:#765a1e; stroke:none;" d="M521.333 136.667L521.667 137.333L521.333 136.667z"/>
<path style="fill:#f2b22a; stroke:none;" d="M522 137C523.832 151.495 523.07 166.39 522.999 181C522.962 188.718 521.659 197.09 514.907 201.891C504.796 209.08 487.725 206 476 206L476 207C487.794 207 506.676 210.589 516.985 204.005C530.408 195.432 525 167.647 525 154C525 148.096 525.688 141.956 522 137z"/>
<path style="fill:#ffbe2e; stroke:none;" d="M102 138L102 190L103 190L104 153L102 138z"/>
<path style="fill:#dcb446; stroke:none;" d="M520 140L520 189L521 189C521 175.212 525.309 152.652 520 140z"/>
<path style="fill:#69450f; stroke:none;" d="M100 142L100 187L101 187C101 174.258 104.91 153.701 100 142z"/>
<path style="fill:#99772c; stroke:none;" d="M102 142L102 184L103 184C103 172.043 106.611 152.988 102 142z"/>
<path style="fill:#634e15; stroke:none;" d="M104 146L104 186L105 186C105 174.566 108.411 156.512 104 146z"/>
<path style="fill:#6a4915; stroke:none;" d="M184.333 146.667L184.667 147.333L184.333 146.667z"/>
<path style="fill:#8e6820; stroke:none;" d="M186.333 146.667L186.667 147.333L186.333 146.667z"/>
<path style="fill:#a36509; stroke:none;" d="M48 149L48 150L75 150L48 149z"/>
<path style="fill:#a08235; stroke:none;" d="M469 149L469 150L495 150L469 149z"/>
<path style="fill:#5f4b1d; stroke:none;" d="M44 150L46 152L46 150L44 150z"/>
<path style="fill:#7a5d1f; stroke:none;" d="M464.667 150.333L465.333 150.667L464.667 150.333z"/>
<path style="fill:#dfa82d; stroke:none;" d="M46.6667 151.333L47.3333 151.667L46.6667 151.333z"/>
<path style="fill:#927125; stroke:none;" d="M48 153L51 152L48 153z"/>
<path style="fill:#5f4d24; stroke:none;" d="M51 151L51 152L74 152L51 151z"/>
<path style="fill:#a77e1f; stroke:none;" d="M466 151L466 152L470 153L466 151z"/>
<path style="fill:#604111; stroke:none;" d="M470 151L470 152L494 152L470 151z"/>
<path style="fill:#fdbd2f; stroke:none;" d="M49 152L49 153L76 153L49 152z"/>
<path style="fill:#fdbc2d; stroke:none;" d="M470 152L470 153L496 153L470 152z"/>
<path style="fill:#604a1e; stroke:none;" d="M343.667 153.333L344.333 153.667L343.667 153.333z"/>
<path style="fill:#935c0b; stroke:none;" d="M79 154L79 182L80 182L79 154z"/>
<path style="fill:#604a1e; stroke:none;" d="M337 154L337 155L342 155L337 154z"/>
<path style="fill:#b87a14; stroke:none;" d="M340 158L343 157L340 158z"/>
<path style="fill:#d19625; stroke:none;" d="M309 157L309 158L318 158L309 157z"/>
<path style="fill:#7d5e1a; stroke:none;" d="M183 158L184 159L183 158z"/>
<path style="fill:#4d3b1a; stroke:none;" d="M309 158L309 187L310 187L309 158z"/>
<path style="fill:#161616; stroke:none;" d="M310 158L310 187L317 187L317 204L319 204L319 185L311 185L311 160L317 160C317.742 168.494 323.723 188.23 331 193C329.883 181.853 322.378 158.044 310 158z"/>
<path style="fill:#d4860d; stroke:none;" d="M140 160L140 161L168 161L140 160z"/>
<path style="fill:#b57714; stroke:none;" d="M311 160L311 185L312 185L311 160z"/>
<path style="fill:#febd2d; stroke:none;" d="M312 160L312 185L313 185C313 178.768 310.308 164.69 316 161L312 160z"/>
<path style="fill:#725817; stroke:none;" d="M316 160L313 161L313 162L316 160z"/>
<path style="fill:#daa329; stroke:none;" d="M342.333 160.667L342.667 161.333L342.333 160.667z"/>
<path style="fill:#c0790c; stroke:none;" d="M139 161L139 187L140 187L139 161z"/>
<path style="fill:#936d22; stroke:none;" d="M172.667 161.333L173.333 161.667L172.667 161.333z"/>
<path style="fill:#54411d; stroke:none;" d="M165 162L165 163L169 163L165 162z"/>
<path style="fill:#000000; stroke:none;" d="M313 162L313 185C322.017 185.618 321 192.76 321 200C323.568 198.295 327.421 196.18 328.184 192.91C329.645 186.651 319.112 163.058 313 162z"/>
<path style="fill:#bf8f27; stroke:none;" d="M343 162L346 171L347 171L343 162z"/>
<path style="fill:#42361c; stroke:none;" d="M141 163L141 185L142 185L141 163z"/>
<path style="fill:#634c13; stroke:none;" d="M144 164L144 165L152 165L144 164z"/>
<path style="fill:#9c751c; stroke:none;" d="M152 164L152 165L167 165L152 164z"/>
<path style="fill:#80520d; stroke:none;" d="M38 169L38 170L56 170L38 169z"/>
<path style="fill:#b28f36; stroke:none;" d="M58 169L60 185L58 169z"/>
<path style="fill:#febe2e; stroke:none;" d="M59 169L59 184L60 184L59 169z"/>
<path style="fill:#7e662c; stroke:none;" d="M459 169L459 170L477 170L459 169z"/>
<path style="fill:#e7ae2b; stroke:none;" d="M479 169L479 184L481 184L481 169L479 169z"/>
<path style="fill:#c37706; stroke:none;" d="M38 170L38 204L85 204L85 203L39 203L38 170z"/>
<path style="fill:#362814; stroke:none;" d="M56 170L56 187L75 187L75 186L57 186L56 170z"/>
<path style="fill:#483c20; stroke:none;" d="M458 170L457 191C460.832 187.651 459.885 174.492 458 170z"/>
<path style="fill:#c39b39; stroke:none;" d="M476 170L476 187L477 187L476 170z"/>
<path style="fill:#bc8e27; stroke:none;" d="M347 171L350 180L351 180L347 171z"/>
<path style="fill:#d6a229; stroke:none;" d="M351 180L354 185L351 180z"/>
<path style="fill:#9d6d19; stroke:none;" d="M267.333 183.667L267.667 184.333L267.333 183.667z"/>
<path style="fill:#6c531a; stroke:none;" d="M225 184L227 186L227 184L225 184z"/>
<path style="fill:#9b7724; stroke:none;" d="M479.667 184.333L480.333 184.667L479.667 184.333z"/>
<path style="fill:#e8ac53; stroke:none;" d="M119 185L119 186L128 186L119 185z"/>
<path style="fill:#fdfdfd; stroke:none;" d="M90 203L91 205C97.8014 204.284 104.236 196.682 111 194.333C123.739 189.91 153.006 194.577 157.167 210.667C158.107 214.304 154.982 218.555 154.333 222C153.875 224.433 155.449 225.033 154 227L159 229C166.718 195.653 211.556 177.406 234 209C239.953 207.016 236.138 201.676 233.285 198.093C228.186 191.689 218.826 188.119 211 186.515C199.903 184.24 188.168 185.217 178 190.373C173.515 192.648 166.794 200.897 162 200.948C157.041 201.001 148.766 192.544 144 190.262C128.374 182.782 95.5204 182.608 90 203z"/>
<path style="fill:#757575; stroke:none;" d="M199 185L199 186L202 186L199 185z"/>
<path style="fill:#dedede; stroke:none;" d="M269 186L269 187L292 188C286.172 184.019 275.726 185.151 269 186z"/>
<path style="fill:#505050; stroke:none;" d="M279 185L279 186L285 186L279 185z"/>
<path style="fill:#7a7a7a; stroke:none;" d="M352 185L352 186L359 186L352 185z"/>
<path style="fill:#535353; stroke:none;" d="M359 185L359 186L364 186L359 185z"/>
<path style="fill:#dedede; stroke:none;" d="M427 186L427 187L460 193C452.209 185.132 437.352 183.535 427 186z"/>
<path style="fill:#959595; stroke:none;" d="M112.667 186.333L113.333 186.667L112.667 186.333z"/>
<path style="fill:#e4bb7e; stroke:none;" d="M131 186L131 187L134 187L131 186z"/>
<path style="fill:#dedede; stroke:none;" d="M340 188L340 189C360.045 186.301 369.678 189.406 388 197C377.684 183.642 354.787 183.845 340 188z"/>
<path style="fill:#878787; stroke:none;" d="M424 186L424 187L427 187L424 186z"/>
<path style="fill:#676767; stroke:none;" d="M107 187L108 188L107 187z"/>
<path style="fill:#c97e09; stroke:none;" d="M140 187L140 188L149 188L149 193L150 193L150 187L140 187z"/>
<path style="fill:#e7ad28; stroke:none;" d="M152 187L153 196L154 196L154 187L152 187z"/>
<path style="fill:#e2e2e2; stroke:none;" d="M234 199C235.67 202.879 238.214 205.489 235 209L235 214C227.767 207.743 222.568 201.291 213 198.44C207.567 196.821 201.628 196.607 196 197.171C151.427 201.63 153.371 271.541 198 273.957C204.106 274.287 210.301 273.1 216 270.934C224.056 267.874 229.452 262.346 235 256C234.85 265.286 223.821 271.724 216 274.677C196.415 282.07 174.254 273.877 164.262 255C160.421 247.742 161.287 229.679 154 227L156 225L157 214C152.513 216.745 153.97 221.869 150.566 225.471C144.372 232.025 132.548 233.929 124 234C124 228.837 128.662 213.012 125.972 209.603C120.859 203.125 109.205 212.707 106 201C84.4077 209.186 79.0711 238.899 91.1049 257C100.485 271.11 118.027 276.737 134 272.254C143.989 269.45 150.166 263.414 157 256C156.741 272.082 128.886 280.185 116 277.101C96.4518 272.423 78.0725 253.405 80.4784 232C81.6596 221.491 87.3708 213.547 93 205L90 203L91 198C68.8742 208.781 69.5103 244.302 81.1011 262C91.6276 278.073 108.52 284.445 127 283.985C134.99 283.787 143.319 280.777 150 276.452C153.275 274.332 157.97 268.051 162 268.056C166.615 268.061 172.78 276.128 177 278.37C186.666 283.505 198.164 285.261 209 283.7C216.309 282.647 224.006 279.503 230 275.211C232.767 273.23 236.35 268.056 240 268.056C244.381 268.056 250.086 275.519 254 277.688C263.73 283.078 273.973 284.719 285 283.91C292.61 283.351 300.688 280.097 307 275.895C310.066 273.854 314.129 268.056 318 268.056C321.65 268.056 325.233 273.23 328 275.211C333.994 279.503 341.691 282.647 349 283.7C359.82 285.259 371.316 283.443 381 278.367C385.253 276.137 391.361 268.061 396 268.056C400.59 268.05 406.838 275.97 411 278.204C420.182 283.133 429.718 284.427 440 283.961C474.321 282.403 504.643 228.773 473 204C474.795 208.458 476.946 211.262 473 215C476.838 224.233 479.452 232.825 477.532 243C468.75 289.553 400.791 286.748 393.44 241C390.679 223.821 402.622 210.168 407 195C397.484 199.438 397.77 203.813 388 197C389.2 199.61 391.747 202.181 392.304 205C395.612 221.735 376.812 231.349 364 234L364 218L366 218L366 224L367 224L367 217L363 217L363 252L366 252L366 260L351 260L353 218L351 218L351 224L343 224L343 210L373 210L373 208C367.037 208 344.075 211.247 343 204L340 201L339 201C300.139 225.698 326.19 287.174 371 271.301C379.627 268.245 385.113 262.738 391 256C392.357 261.156 388.588 263.561 385 267C377.35 274.331 364.668 279.037 354 278C330.777 275.742 312.78 252.83 315 230C315.755 222.234 320.336 216.662 323.667 210C324.828 207.677 323.599 206.002 325 204L322 203L331 193L316 203C311.542 221.344 304.146 229.293 286 234L286 219L287 219L287 224L289 224L289 217L285 217L285 252L288 252L288 260L273 260L275 218L272 218L272 224L265 224L265 210L295 210L295 208C289.037 208 266.075 211.247 265 204L264 203L262 204L261 203L262 201C238.803 209.972 235.231 242.051 249.518 259.996C259.686 272.769 276.909 276.614 292 271.641C301.085 268.647 306.849 263.041 313 256C313.447 270.253 288.666 278.709 277 277.909C242.926 275.573 225.212 233.61 247.301 208.004C253.9 200.354 262.056 196.984 271 193L271 192L268 191L269 187C256.132 187.66 244.618 205.79 234 199z"/>
<path style="fill:#fdfdfd; stroke:none;" d="M269 187L268 191C273.172 193.149 277.675 191.533 283 192.465C295.048 194.576 304.448 200.518 313 209C318.744 203.528 312.369 197.34 307 194.275C294.525 187.152 282.997 187 269 187z"/>
<path style="fill:#f2b32a; stroke:none;" d="M319 187L319 203L320 203L321 187L319 187z"/>
<path style="fill:#fdfdfd; stroke:none;" d="M322 203L325 204L323 206C330.159 206.126 337.846 197.231 345 194.699C364.359 187.848 376.999 198.474 392 209C395.838 199.542 381.286 192.278 374 189.533C358.056 183.525 330.268 185.648 322 203z"/>
<path style="fill:#757575; stroke:none;" d="M372 187L373 188L372 187z"/>
<path style="fill:#fdfdfd; stroke:none;" d="M407 203C414.138 199.624 420.146 195.085 428 193.236C446.195 188.952 463.145 200.571 473 215L475 215C477.87 208.271 472.071 201.216 466.96 196.939C455.614 187.445 435.24 184.261 421 187.529C413.47 189.257 403.483 194.059 407 203z"/>
<path style="fill:#848484; stroke:none;" d="M450 187L451 188L450 187z"/>
<path style="fill:#fd9c06; stroke:none;" d="M140 188L140 189L149 193L149 188L140 188z"/>
<path style="fill:#7c5616; stroke:none;" d="M230 189L230 190L237 190L230 189z"/>
<path style="fill:#dfdcd8; stroke:none;" d="M296 189L296 190L304 193L304 192L296 189z"/>
<path style="fill:#888888; stroke:none;" d="M455 189L456 190L455 189z"/>
<path style="fill:#6b6252; stroke:none;" d="M331.333 191.667L331.667 192.333L331.333 191.667z"/>
<path style="fill:#bbc6d4; stroke:none;" d="M119 192L119 193L128 193L119 192z"/>
<path style="fill:#bac5d4; stroke:none;" d="M197 192L197 193L206 193L197 192z"/>
<path style="fill:#c2cbd8; stroke:none;" d="M275 192L275 193L284 193L275 192z"/>
<path style="fill:#bac5d4; stroke:none;" d="M353 192L353 193L362 193L353 192z"/>
<path style="fill:#c5ceda; stroke:none;" d="M431 192L431 193L440 193L431 192z"/>
<path style="fill:#7e91aa; stroke:none;" d="M114 193L114 194L117 194L114 193z"/>
<path style="fill:#1f375b; stroke:none;" d="M107 273C104.249 264.645 92.4608 259.836 88.3233 251C76.4212 225.581 95.9858 198.206 123 196C117.097 187.846 99.2197 199.187 94.0147 204.093C76.0091 221.066 75.2812 269.555 107 273z"/>
<path style="fill:#204c83; stroke:none;" d="M122 193L137 199.428L157 213C157.005 198.279 133.388 193.094 122 193z"/>
<path style="fill:#6c85a7; stroke:none;" d="M129 193L129 194L132 194L129 193z"/>
<path style="fill:#8093ac; stroke:none;" d="M192 193L192 194L195 194L192 193z"/>
<path style="fill:#20518e; stroke:none;" d="M195 193L211 197.89L235 213C235.006 195.835 207.302 193 195 193z"/>
<path style="fill:#6882a5; stroke:none;" d="M207 193L207 194L210 194L207 193z"/>
<path style="fill:#8496ae; stroke:none;" d="M270 193L270 194L273 194L270 193z"/>
<path style="fill:#1f518e; stroke:none;" d="M273 193L273 194C286.947 201.257 301.173 198.419 311 214L313 214C315.247 196.267 284.915 193 273 193z"/>
<path style="fill:#6580a3; stroke:none;" d="M285 193L285 194L288 194L285 193z"/>
<path style="fill:#8798b0; stroke:none;" d="M348 193L348 194L351 194L348 193z"/>
<path style="fill:#204f8a; stroke:none;" d="M351 193L351 194L374 200.518L391 214C393.253 196.22 362.908 193 351 193z"/>
<path style="fill:#849ab6; stroke:none;" d="M364 193L364 194L367 194L364 193z"/>
<path style="fill:#8a9bb2; stroke:none;" d="M426 193L426 194L429 194L426 193z"/>
<path style="fill:#1f375b; stroke:none;" d="M450 272C433.914 272.824 422.256 275.212 409.04 262.826C382.837 238.269 403.044 200.127 435 196L435 193C395.657 193.812 377.713 245.187 410 269.239C418.588 275.637 427.536 277.121 438 276.996C442.742 276.94 448.321 277.077 450 272z"/>
<path style="fill:#205596; stroke:none;" d="M435 193L435 196C476.632 199.313 489.453 254.069 449 271L450 275C495.143 259.604 480.998 193.381 435 193z"/>
<path style="fill:#8197b4; stroke:none;" d="M442 193L442 194L445 194L442 193z"/>
<path style="fill:#70849f; stroke:none;" d="M110.667 194.333L111.333 194.667L110.667 194.333z"/>
<path style="fill:#7588a3; stroke:none;" d="M188.667 194.333L189.333 194.667L188.667 194.333z"/>
<path style="fill:#1f375b; stroke:none;" d="M185 273C182.453 265.265 171.491 260.76 167.324 253C152.841 226.029 172.873 205.238 197 196C188.027 189.905 173.954 201.323 168.468 208.004C153.884 225.763 155.976 269.848 185 273M277 277C273.051 271.235 261.791 270.038 256.001 265.481C237.86 251.205 235.721 225.958 251.3 209.09C257.421 202.463 270.769 200.719 275 194C224.075 194.141 226.526 276.861 277 277M351 277L351 274C325.031 263.664 307.167 236.223 327.819 211.039C334.219 203.236 348.415 201.282 353 194C323.359 194.082 308.045 227.777 318.879 253C324.696 266.543 337.04 274.291 351 277z"/>
<path style="fill:#bbc8d7; stroke:none;" d="M369.667 194.333L370.333 194.667L369.667 194.333z"/>
<path style="fill:#b4c2d3; stroke:none;" d="M447.667 194.333L448.333 194.667L447.667 194.333z"/>
<path style="fill:#7d91ad; stroke:none;" d="M118 196L118 197L128 197L118 196z"/>
<path style="fill:#676767; stroke:none;" d="M154 196L155 197L154 196z"/>
<path style="fill:#7c90ac; stroke:none;" d="M196 196L196 197L206 197L196 196z"/>
<path style="fill:#7b90ac; stroke:none;" d="M274 196L274 197L284 197L274 196z"/>
<path style="fill:#7a8fab; stroke:none;" d="M352 196L352 197L362 197L352 196z"/>
<path style="fill:#8ea0b8; stroke:none;" d="M431 196L431 197L440 197L431 196z"/>
<path style="fill:#bec8d4; stroke:none;" d="M114.667 197.333L115.333 197.667L114.667 197.333z"/>
<path style="fill:#fdfdfd; stroke:none;" d="M124 234C129.142 233.986 134.057 233.469 139 231.961C146.918 229.544 159.3 221.15 153.356 211.001C147.47 200.947 133.823 196.966 123 197.001C119.451 197.012 106.578 196.925 106.331 202.22C105.871 212.096 122.459 204.872 125.968 210.318C128.146 213.699 124 228.928 124 234z"/>
<path style="fill:#728bac; stroke:none;" d="M131.667 197.333L132.333 197.667L131.667 197.333z"/>
<path style="fill:#bbc5d2; stroke:none;" d="M192.667 197.333L193.333 197.667L192.667 197.333z"/>
<path style="fill:#778faf; stroke:none;" d="M209.667 197.333L210.333 197.667L209.667 197.333z"/>
<path style="fill:#b6c1cf; stroke:none;" d="M270.667 197.333L271.333 197.667L270.667 197.333z"/>
<path style="fill:#fdfdfd; stroke:none;" d="M261 203L264 203L265 204C265.438 212.349 286.941 205.975 292.772 208.603C297.651 210.804 296 219.692 296 224L287 224L287 219L286 219L286 234C290.782 233.072 295.512 232.084 300 230.124C309.39 226.023 314.723 215.741 306.556 207.44C297.737 198.476 269.696 189.48 261 203z"/>
<path style="fill:#7c94b2; stroke:none;" d="M287.667 197.333L288.333 197.667L287.667 197.333z"/>
<path style="fill:#b1bccb; stroke:none;" d="M348.667 197.333L349.333 197.667L348.667 197.333z"/>
<path style="fill:#fdfdfd; stroke:none;" d="M340 200L340 203L343 204C343.438 212.349 364.941 205.975 370.772 208.603C375.651 210.804 374 219.692 374 224L366 224L366 218L364 218L364 234C383.251 231.406 400.295 214.568 377 201.529C365.633 195.166 351.953 196.203 340 200z"/>
<path style="fill:#8198b5; stroke:none;" d="M365.667 197.333L366.333 197.667L365.667 197.333z"/>
<path style="fill:#adb8c8; stroke:none;" d="M426.667 197.333L427.333 197.667L426.667 197.333z"/>
<path style="fill:#fdfdfd; stroke:none;" d="M413 203L414 209L415 209L415 207L416 207C416.459 209.609 416.655 210.628 419 209C420.425 219.77 431.461 208.006 439 209.33C451.313 211.493 452 220.789 452 231C457.333 230.049 469.2 225.294 469.978 218.985C470.852 211.889 459.291 203.735 454 200.985C440.458 193.947 426.022 196.949 413 203z"/>
<path style="fill:#879cb8; stroke:none;" d="M443.667 197.333L444.333 197.667L443.667 197.333z"/>
<path style="fill:#8896aa; stroke:none;" d="M334 199L335 200L334 199z"/>
<path style="fill:#8794a7; stroke:none;" d="M175 201L176 202L175 201z"/>
<path style="fill:#8b99ae; stroke:none;" d="M338 201L339 202L338 201z"/>
<path style="fill:#818fa3; stroke:none;" d="M408 202L409 203L408 202z"/>
<path style="fill:#90a7c3; stroke:none;" d="M145 203L146 204L145 203z"/>
<path style="fill:#493f29; stroke:none;" d="M395.667 203.333L396.333 203.667L395.667 203.333z"/>
<path style="fill:#c09838; stroke:none;" d="M473 203L473 204L504 204L473 203z"/>
<path style="fill:#715d2a; stroke:none;" d="M504.667 203.333L505.333 203.667L504.667 203.333z"/>
<path style="fill:#e6e6e6; stroke:none;" d="M412 204C406.414 209.601 401.131 215.192 398.924 223C397.142 229.303 396.569 235.554 397.805 242C405.515 282.225 465.865 284.706 473.384 243C474.805 235.123 473.754 227.675 472 220L452 231L451 215L450 215C451.335 225.561 454.928 246.983 447.49 255.786C441.767 262.56 427.419 261.518 423.858 252.985C420.149 244.095 421.797 224.253 424 215L419 209L417 211L416 207L415 207L415 209L414 209L412 204z"/>
<path style="fill:#915b0b; stroke:none;" d="M509.667 204.333L510.333 204.667L509.667 204.333z"/>
<path style="fill:#3f361f; stroke:none;" d="M39 205L39 206L83 206C71.5366 201.19 51.4804 205 39 205z"/>
<path style="fill:#8794a8; stroke:none;" d="M176 205L177 206L176 205z"/>
<path style="fill:#90a8c5; stroke:none;" d="M460 205L461 206L460 205z"/>
<path style="fill:#402e13; stroke:none;" d="M475 205L475 206L501 206L475 205z"/>
<path style="fill:#7c510f; stroke:none;" d="M501 205L501 206L506 206L501 205z"/>
<path style="fill:#ffbe2e; stroke:none;" d="M39 206L39 207L82 207C70.7744 202.29 51.2188 206 39 206z"/>
<path style="fill:#8a97aa; stroke:none;" d="M253 206L254 207L253 206z"/>
<path style="fill:#4a3911; stroke:none;" d="M40 207L40 208L81 209L70 207L40 207z"/>
<path style="fill:#8c98aa; stroke:none;" d="M330 207L331 208L330 207z"/>
<path style="fill:#4a3911; stroke:none;" d="M477 207L477 208L503 208L477 207z"/>
<path style="fill:#91aac7; stroke:none;" d="M307 208L308 209L307 208z"/>
<path style="fill:#8793a7; stroke:none;" d="M329 208L330 209L329 208z"/>
<path style="fill:#8f9bac; stroke:none;" d="M402 208L403 209L402 208z"/>
<path style="fill:#8995a7; stroke:none;" d="M167 209L168 210L167 209z"/>
<path style="fill:#366d94; stroke:none;" d="M189 217C192.627 217.123 203.219 215.893 205.397 218.337C213.432 227.355 200.223 238.887 216 244C216 236.08 218.916 220.817 214.258 214.109C208.379 205.644 192.29 207.55 189 217z"/>
<path style="fill:#8693a5; stroke:none;" d="M250 209L251 210L250 209z"/>
<path style="fill:#91a9c7; stroke:none;" d="M386 209L387 210L386 209z"/>
<path style="fill:#6795b2; stroke:none;" d="M431 209L431 210L441 210L431 209z"/>
<path style="fill:#777777; stroke:none;" d="M79 210L80 211L79 210z"/>
<path style="fill:#39749c; stroke:none;" d="M110 210L110 217L113 217L113 252L114 252L114 229L116 231L122 230L122 217L125 217L125 210L110 210z"/>
<path style="fill:#8390a3; stroke:none;" d="M171 210L172 211L171 210z"/>
<path style="fill:#6d91ab; stroke:none;" d="M265 210L265 224L266 224L265 210z"/>
<path style="fill:#39749c; stroke:none;" d="M266 210L266 224L272 224L272 217L276 217L276 241L284 246L285 246L285 217L289 217L289 224L295 224L295 210L266 210z"/>
<path style="fill:#86a9c0; stroke:none;" d="M295 210L295 224L296 224L295 210z"/>
<path style="fill:#7a99b0; stroke:none;" d="M343 210L343 224L344 224L343 210z"/>
<path style="fill:#3b78a0; stroke:none;" d="M344 210L344 224L350 224L350 217L354 217L354 231L355 231L356 225L363 227L363 217L367 217L367 224L373 224L373 210L344 210z"/>
<path style="fill:#759db7; stroke:none;" d="M373 210L373 224L374 224L373 210z"/>
<path style="fill:#34688f; stroke:none;" d="M431 244L431 250L432 250C432 241.358 431.645 232.633 432.019 224C432.142 221.161 433.022 216.387 436.961 216.921C440.731 217.433 440.941 222.11 440.995 225C441.152 233.327 441 241.671 441 250L442 250L442 243L450 246L450 228C450 224.497 450.551 220.423 449.682 217.004C447.672 209.099 433.071 207.366 427.109 211.603C418.94 217.409 419.924 242.854 431 244z"/>
<path style="fill:#8fa7c6; stroke:none;" d="M465 210L466 211L465 210z"/>
<path style="fill:#767676; stroke:none;" d="M478 210L479 211L478 210z"/>
<path style="fill:#8894a7; stroke:none;" d="M243 212L244 213L243 212z"/>
<path style="fill:#8b9fb7; stroke:none;" d="M155.667 213.333L156.333 213.667L155.667 213.333z"/>
<path style="fill:#7690ae; stroke:none;" d="M233.667 213.333L234.333 213.667L233.667 213.333z"/>
<path style="fill:#808da1; stroke:none;" d="M403 213L404 214L403 213z"/>
<path style="fill:#2d587e; stroke:none;" d="M190 216C187.358 224.937 184.827 256.466 196.004 259.566C211.533 263.874 224.432 247.91 207 240C206.999 245.412 200.938 260.231 197.434 247.981C194.916 239.18 197 227.142 197 218L190 216z"/>
<path style="fill:#ececec; stroke:none;" d="M200.317 217.047C197.697 218.659 198.019 222.357 198.001 225C197.95 232.446 196.195 242.705 198.318 249.852C199.14 252.62 202.268 253.533 204.683 251.968C209.693 248.72 207.75 226.544 206.852 221.019C206.349 217.926 203.592 215.033 200.317 217.047z"/>
<path style="fill:#ededed; stroke:none;" d="M434.317 217.047C429.515 220.001 430.907 243.804 432.318 248.941C433.065 251.662 435.851 253.619 438.683 252.377C441.401 251.186 440.983 247.421 440.999 245C441.052 237.302 442.087 228.618 440.852 221.019C440.349 217.926 437.592 215.033 434.317 217.047z"/>
<path style="fill:#abb5be; stroke:none;" d="M122 217L122 252L123 252L122 217z"/>
<path style="fill:#cbcdcf; stroke:none;" d="M272 217L272 218L275 218L275 252L276 252L276 217L272 217z"/>
<path style="fill:#d6d6d6; stroke:none;" d="M350 217L350 224L351 224L351 218L353 218C353 226.63 356.281 244.029 351 251L351 252C355.221 251.096 354 246.654 354 243L354 217L350 217z"/>
<path style="fill:#a2b3c0; stroke:none;" d="M188 218L188 250L189 250L188 218z"/>
<path style="fill:#a6b5c0; stroke:none;" d="M450 218L450 250L451 250L450 218z"/>
<path style="fill:#6485a0; stroke:none;" d="M197 219L197 250L198 250L197 219z"/>
<path style="fill:#6b7a91; stroke:none;" d="M82.3333 222.667L82.6667 223.333L82.3333 222.667z"/>
<path style="fill:#7a97bc; stroke:none;" d="M476.333 222.667L476.667 223.333L476.333 222.667z"/>
<path style="fill:#5c6d86; stroke:none;" d="M238.333 223.667L238.667 224.333L238.333 223.667z"/>
<path style="fill:#6f7e94; stroke:none;" d="M316.333 223.667L316.667 224.333L316.333 223.667z"/>
<path style="fill:#afb6c1; stroke:none;" d="M320.333 223.667L320.667 224.333L320.333 223.667z"/>
<path style="fill:#9ca5b4; stroke:none;" d="M398.333 223.667L398.667 224.333L398.333 223.667z"/>
<path style="fill:#305f86; stroke:none;" d="M356 225L354 252L351 252L351 259L366 259L366 252L363 252L363 227L356 225z"/>
<path style="fill:#78869b; stroke:none;" d="M81.3333 226.667L81.6667 227.333L81.3333 226.667z"/>
<path style="fill:#8a96a7; stroke:none;" d="M159 226L159 229L160 229L159 226z"/>
<path style="fill:#a1aab7; stroke:none;" d="M163.333 226.667L163.667 227.333L163.333 226.667z"/>
<path style="fill:#9da6b4; stroke:none;" d="M237.333 226.667L237.667 227.333L237.333 226.667z"/>
<path style="fill:#8e99aa; stroke:none;" d="M241.333 226.667L241.667 227.333L241.333 226.667z"/>
<path style="fill:#86a1c2; stroke:none;" d="M477 226L477 229L478 229L477 226z"/>
<path style="fill:#909bab; stroke:none;" d="M315.333 227.667L315.667 228.333L315.333 227.667z"/>
<path style="fill:#9da6b4; stroke:none;" d="M319 227L319 230L320 230L319 227z"/>
<path style="fill:#a4acb9; stroke:none;" d="M393 227L393 230L394 230L393 227z"/>
<path style="fill:#8a95a7; stroke:none;" d="M397 227L397 230L398 230L397 227z"/>
<path style="fill:#2e5a80; stroke:none;" d="M114 229L114 252L110 252L110 259L138 259L138 246L131 246L131 252L122 252L122 230L114 229z"/>
<path style="fill:#7d8a9e; stroke:none;" d="M84 230L84 240L85 240L84 230z"/>
<path style="fill:#b6bcc6; stroke:none;" d="M80 231L80 237L81 237L80 231z"/>
<path style="fill:#6b7a91; stroke:none;" d="M162 231L162 240L163 240L162 231z"/>
<path style="fill:#5b6c86; stroke:none;" d="M240 231L240 239L241 239L240 231z"/>
<path style="fill:#7393b9; stroke:none;" d="M474 231L474 239L475 239L474 231z"/>
<path style="fill:#495c79; stroke:none;" d="M318 232L318 237L319 237L318 232z"/>
<path style="fill:#5f6f88; stroke:none;" d="M159 240L159 243L160 243L159 240z"/>
<path style="fill:#728096; stroke:none;" d="M237.333 240.667L237.667 241.333L237.333 240.667z"/>
<path style="fill:#8490a3; stroke:none;" d="M315.333 240.667L315.667 241.333L315.333 240.667z"/>
<path style="fill:#a5adba; stroke:none;" d="M319 240L319 243L320 243L319 240z"/>
<path style="fill:#96a0af; stroke:none;" d="M393.333 240.667L393.667 241.333L393.333 240.667z"/>
<path style="fill:#939dad; stroke:none;" d="M397 240L397 243L398 243L397 240z"/>
<path style="fill:#6b7a91; stroke:none;" d="M81 241L81 244L82 244L81 241z"/>
<path style="fill:#98a2b0; stroke:none;" d="M241 241L241 244L242 244L241 241z"/>
<path style="fill:#2d587e; stroke:none;" d="M276 241L276 252L273 252L273 259L288 259L288 252L285 252C284.852 245.072 283.077 241.981 276 241z"/>
<path style="fill:#7997bc; stroke:none;" d="M477 241L477 244L478 244L477 241z"/>
<path style="fill:#939dad; stroke:none;" d="M85.3333 242.667L85.6667 243.333L85.3333 242.667z"/>
<path style="fill:#818da0; stroke:none;" d="M163.333 242.667L163.667 243.333L163.333 242.667z"/>
<path style="fill:#2d597f; stroke:none;" d="M423 242C423.001 247.041 422.299 253.581 426.419 257.347C436.37 266.444 449.905 257.299 450 246L442 243C441.746 253.526 431.837 255.1 431 244L423 242z"/>
<path style="fill:#86a0c0; stroke:none;" d="M473.333 242.667L473.667 243.333L473.333 242.667z"/>
<path style="fill:#8497a8; stroke:none;" d="M131 245L131 246L138 246L138 259L110 259L110 260L139 260L139 245L131 245z"/>
<path style="fill:#8e99a9; stroke:none;" d="M316.333 245.667L316.667 246.333L316.333 245.667z"/>
<path style="fill:#a1a9b6; stroke:none;" d="M394.333 245.667L394.667 246.333L394.333 245.667z"/>
<path style="fill:#768499; stroke:none;" d="M398.333 245.667L398.667 246.333L398.333 245.667z"/>
<path style="fill:#8b96a7; stroke:none;" d="M82.3333 246.667L82.6667 247.333L82.3333 246.667z"/>
<path style="fill:#9da6b4; stroke:none;" d="M160.333 246.667L160.667 247.333L160.333 246.667z"/>
<path style="fill:#99aec8; stroke:none;" d="M476.333 246.667L476.667 247.333L476.333 246.667z"/>
<path style="fill:#606060; stroke:none;" d="M483 246L484 247L483 246z"/>
<path style="fill:#a2b0bc; stroke:none;" d="M423.333 252.667L423.667 253.333L423.333 252.667z"/>
<path style="fill:#1f4576; stroke:none;" d="M156 256C147.667 265.532 138.878 272.038 126 273.711C119.477 274.558 109.731 269.1 105 274C118.777 278.481 134.388 278.778 147 270.613C151.578 267.649 159.625 261.988 156 256M234 256C226.912 264.698 217.497 272.136 206 273.79C199.146 274.776 187.833 268.994 183 274C196.634 278.435 212.579 278.919 225 270.637C229.541 267.61 237.644 262.018 234 256z"/>
<path style="fill:#204a7f; stroke:none;" d="M312 256C302.193 268.042 290.5 274 275 274L275 275C284.795 280.096 297.959 274.818 306 268.482C309.939 265.378 315.259 261.115 312 256z"/>
<path style="fill:#20497f; stroke:none;" d="M390 256C377.75 271.041 366.641 270.081 350 275L350 276C361.112 279.284 375.134 275.995 384 268.671C387.808 265.526 393.528 260.958 390 256z"/>
<path style="fill:#8a9cac; stroke:none;" d="M207.667 259.333L208.333 259.667L207.667 259.333z"/>
<path style="fill:#8597a9; stroke:none;" d="M273 259L273 260L288 260L273 259M351 259L351 260L366 260L351 259z"/>
<path style="fill:#818ea0; stroke:none;" d="M405 259L406 260L405 259z"/>
<path style="fill:#7b90a4; stroke:none;" d="M441.667 259.333L442.333 259.667L441.667 259.333z"/>
<path style="fill:#595959; stroke:none;" d="M81 262L82 263L81 262z"/>
<path style="fill:#696969; stroke:none;" d="M476 262L477 263L476 262z"/>
<path style="fill:#606060; stroke:none;" d="M473 266L474 267L473 266z"/>
<path style="fill:#767676; stroke:none;" d="M85 267L86 268L85 267z"/>
<path style="fill:#7a7a7a; stroke:none;" d="M472 267L473 268L472 267z"/>
<path style="fill:#767676; stroke:none;" d="M164 268L165 269L164 268z"/>
<path style="fill:#606060; stroke:none;" d="M315 268L316 269L315 268z"/>
<path style="fill:#7a7a7a; stroke:none;" d="M393 268L394 269L393 268z"/>
<path style="fill:#727272; stroke:none;" d="M165 269L166 270L165 269z"/>
<path style="fill:#686868; stroke:none;" d="M470 269L471 270L470 269z"/>
<path style="fill:#838383; stroke:none;" d="M88 270L89 271L88 270z"/>
<path style="fill:#626262; stroke:none;" d="M166 270L167 271L166 270z"/>
<path style="fill:#5e5e5e; stroke:none;" d="M313 270L314 271L313 270z"/>
<path style="fill:#848484; stroke:none;" d="M391 270L392 271L391 270z"/>
<path style="fill:#7b7b7b; stroke:none;" d="M89 271L90 272L89 271z"/>
<path style="fill:#606060; stroke:none;" d="M167 271L168 272L167 271z"/>
<path style="fill:#5e5e5e; stroke:none;" d="M390 271L391 272L390 271z"/>
<path style="fill:#808080; stroke:none;" d="M468 271L469 272L468 271z"/>
<path style="fill:#595959; stroke:none;" d="M90 272L91 273L90 272z"/>
<path style="fill:#94a1b3; stroke:none;" d="M112.667 272.333L113.333 272.667L112.667 272.333z"/>
<path style="fill:#8f9db0; stroke:none;" d="M190.667 272.333L191.333 272.667L190.667 272.333z"/>
<path style="fill:#8a99ad; stroke:none;" d="M268.667 272.333L269.333 272.667L268.667 272.333z"/>
<path style="fill:#8696ab; stroke:none;" d="M346.667 272.333L347.333 272.667L346.667 272.333z"/>
<path style="fill:#5e5e5e; stroke:none;" d="M467 272L468 273L467 272z"/>
<path style="fill:#657e9f; stroke:none;" d="M206 273L206 274L209 274L206 273z"/>
<path style="fill:#6780a1; stroke:none;" d="M284 273L284 274L287 274L284 273z"/>
<path style="fill:#667c9a; stroke:none;" d="M350 273L350 274L353 274L350 273z"/>
<path style="fill:#6a82a2; stroke:none;" d="M362 273L362 274L365 274L362 273z"/>
<path style="fill:#6d85a4; stroke:none;" d="M440 273L440 274L443 274L440 273z"/>
<path style="fill:#808080; stroke:none;" d="M152 274L153 275L152 274z"/>
<path style="fill:#727272; stroke:none;" d="M405 274L406 275L405 274z"/>
<path style="fill:#7b7b7b; stroke:none;" d="M94 275L95 276L94 275z"/>
<path style="fill:#606060; stroke:none;" d="M172 275L173 276L172 275z"/>
<path style="fill:#666666; stroke:none;" d="M385 275L386 276L385 275z"/>
<path style="fill:#808080; stroke:none;" d="M463 275L464 276L463 275z"/>
<path style="fill:#99a8bd; stroke:none;" d="M132.667 276.333L133.333 276.667L132.667 276.333z"/>
<path style="fill:#94a4ba; stroke:none;" d="M210.667 276.333L211.333 276.667L210.667 276.333z"/>
<path style="fill:#8fa1b8; stroke:none;" d="M288.667 276.333L289.333 276.667L288.667 276.333z"/>
<path style="fill:#5d7492; stroke:none;" d="M347.667 276.333L348.333 276.667L347.667 276.333z"/>
<path style="fill:#8a9db5; stroke:none;" d="M366.667 276.333L367.333 276.667L366.667 276.333z"/>
<path style="fill:#617694; stroke:none;" d="M425.667 276.333L426.333 276.667L425.667 276.333z"/>
<path style="fill:#8599b2; stroke:none;" d="M444.667 276.333L445.333 276.667L444.667 276.333z"/>
<path style="fill:#7c8ea7; stroke:none;" d="M117 277L117 278L128 278L117 277z"/>
<path style="fill:#7489a5; stroke:none;" d="M195 277L195 278L207 278L195 277z"/>
<path style="fill:#6a809e; stroke:none;" d="M273 277L273 278L285 278L273 277z"/>
<path style="fill:#6a809f; stroke:none;" d="M351 277L351 278L363 278L351 277z"/>
<path style="fill:#687f9e; stroke:none;" d="M429 277L429 278L440 278L429 277z"/>
<path style="fill:#5a5a5a; stroke:none;" d="M224 278L225 279L224 278z"/>
<path style="fill:#767676; stroke:none;" d="M255 278L256 279L255 278z"/>
<path style="fill:#7a7a7a; stroke:none;" d="M302 278L303 279L302 278z"/>
<path style="fill:#5d5d5d; stroke:none;" d="M333 278L334 279L333 278z"/>
<path style="fill:#6c6c6c; stroke:none;" d="M179 279L180 280L179 279z"/>
<path style="fill:#595959; stroke:none;" d="M257 279L258 280L257 279z"/>
<path style="fill:#5a5a5a; stroke:none;" d="M300 279L301 280L300 279z"/>
<path style="fill:#686868; stroke:none;" d="M378 279L379 280L378 279z"/>
<path style="fill:#808080; stroke:none;" d="M456 279L457 280L456 279z"/>
<path style="fill:#646464; stroke:none;" d="M103 280L104 281L103 280z"/>
<path style="fill:#595959; stroke:none;" d="M181 280L182 281L181 280z"/>
<path style="fill:#5a5a5a; stroke:none;" d="M376 280L377 281L376 280z"/>
<path style="fill:#6d6d6d; stroke:none;" d="M454 280L455 281L454 280z"/>
<path style="fill:#595959; stroke:none;" d="M217 281L218 282L217 281z"/>
<path style="fill:#7a7a7a; stroke:none;" d="M295 281L296 282L295 281z"/>
<path style="fill:#646464; stroke:none;" d="M340 281L341 282L340 281z"/>
<path style="fill:#848484; stroke:none;" d="M373 281L374 282L373 281z"/>
<path style="fill:#5d5d5d; stroke:none;" d="M187 282L188 283L187 282z"/>
<path style="fill:#595959; stroke:none;" d="M370 282L371 283L370 282z"/>
<path style="fill:#757575; stroke:none;" d="M448 282L449 283L448 282z"/>
</svg>
